<?xml version="1.0" encoding="UTF-8" standalone="no"?><svg xmlns="http://www.w3.org/2000/svg" xmlns:xlink="http://www.w3.org/1999/xlink" contentScriptType="application/ecmascript" contentStyleType="text/css" height="542px" preserveAspectRatio="none" style="width:858px;height:542px;" version="1.1" viewBox="0 0 858 542" width="858px" zoomAndPan="magnify"><defs><filter height="300%" id="fad2twvg6j051" width="300%" x="-1" y="-1"><feGaussianBlur result="blurOut" stdDeviation="2.0"/><feColorMatrix in="blurOut" result="blurOut2" type="matrix" values="0 0 0 0 0 0 0 0 0 0 0 0 0 0 0 0 0 0 .4 0"/><feOffset dx="4.0" dy="4.0" in="blurOut2" result="blurOut3"/><feBlend in="SourceGraphic" in2="blurOut3" mode="normal"/></filter></defs><g><!--class Cat--><rect fill="#FEFECE" filter="url(#fad2twvg6j051)" height="307.1016" id="Cat" style="stroke: #A80036; stroke-width: 1.5;" width="140" x="6" y="224"/><ellipse cx="62.25" cy="240" fill="#ADD1B2" rx="11" ry="11" style="stroke: #A80036; stroke-width: 1.0;"/><path d="M64.7231,246.1431 Q64.1421,246.4419 63.5029,246.5913 Q62.8638,246.7407 62.1582,246.7407 Q59.6514,246.7407 58.3315,245.0889 Q57.0117,243.437 57.0117,240.3159 Q57.0117,237.1865 58.3315,235.5347 Q59.6514,233.8828 62.1582,233.8828 Q62.8638,233.8828 63.5112,234.0322 Q64.1587,234.1816 64.7231,234.4805 L64.7231,237.2031 Q64.0923,236.6221 63.4988,236.3523 Q62.9053,236.0825 62.2744,236.0825 Q60.9297,236.0825 60.2449,237.1492 Q59.5601,238.2158 59.5601,240.3159 Q59.5601,242.4077 60.2449,243.4744 Q60.9297,244.541 62.2744,244.541 Q62.9053,244.541 63.4988,244.2712 Q64.0923,244.0015 64.7231,243.4204 Z "/><text fill="#000000" font-family="sans-serif" font-size="12" lengthAdjust="spacingAndGlyphs" textLength="19" x="82.75" y="244.5352">Cat</text><line style="stroke: #A80036; stroke-width: 1.5;" x1="7" x2="145" y1="256" y2="256"/><rect fill="none" height="6" style="stroke: #C82930; stroke-width: 1.0;" width="6" x="14" y="264.9775"/><text fill="#000000" font-family="sans-serif" font-size="11" lengthAdjust="spacingAndGlyphs" textLength="48" x="26" y="270.6348">sleep: int</text><rect fill="none" height="6" style="stroke: #C82930; stroke-width: 1.0;" width="6" x="14" y="277.9326"/><text fill="#000000" font-family="sans-serif" font-size="11" lengthAdjust="spacingAndGlyphs" textLength="52" x="26" y="283.5898">awake: int</text><rect fill="none" height="6" style="stroke: #C82930; stroke-width: 1.0;" width="6" x="14" y="290.8877"/><text fill="#000000" font-family="sans-serif" font-size="11" lengthAdjust="spacingAndGlyphs" textLength="53" x="26" y="296.5449">digest: int</text><text fill="#000000" font-family="sans-serif" font-size="11" lengthAdjust="spacingAndGlyphs" textLength="0" x="29" y="309.5"/><rect fill="none" height="6" style="stroke: #C82930; stroke-width: 1.0;" width="6" x="14" y="316.7979"/><text fill="#000000" font-family="sans-serif" font-size="11" lengthAdjust="spacingAndGlyphs" textLength="98" x="26" y="322.4551">currentState: State</text><text fill="#000000" font-family="sans-serif" font-size="11" lengthAdjust="spacingAndGlyphs" textLength="0" x="29" y="335.4102"/><rect fill="none" height="6" style="stroke: #C82930; stroke-width: 1.0;" width="6" x="14" y="342.708"/><text fill="#000000" font-family="sans-serif" font-size="11" lengthAdjust="spacingAndGlyphs" textLength="67" x="26" y="348.3652">name: String</text><line style="stroke: #A80036; stroke-width: 1.5;" x1="7" x2="145" y1="354.6855" y2="354.6855"/><ellipse cx="17" cy="366.6631" fill="#84BE84" rx="3" ry="3" style="stroke: #038048; stroke-width: 1.0;"/><text fill="#000000" font-family="sans-serif" font-size="11" lengthAdjust="spacingAndGlyphs" textLength="57" x="26" y="369.3203">void feed()</text><ellipse cx="17" cy="379.6182" fill="#84BE84" rx="3" ry="3" style="stroke: #038048; stroke-width: 1.0;"/><text fill="#000000" font-family="sans-serif" font-size="11" lengthAdjust="spacingAndGlyphs" textLength="53" x="26" y="382.2754">void tick()</text><text fill="#000000" font-family="sans-serif" font-size="11" lengthAdjust="spacingAndGlyphs" textLength="0" x="29" y="395.2305"/><ellipse cx="17" cy="405.5283" fill="#84BE84" rx="3" ry="3" style="stroke: #038048; stroke-width: 1.0;"/><text fill="#000000" font-family="sans-serif" font-size="11" lengthAdjust="spacingAndGlyphs" textLength="99" x="26" y="408.1855">boolean isAsleep()</text><ellipse cx="17" cy="418.4834" fill="#84BE84" rx="3" ry="3" style="stroke: #038048; stroke-width: 1.0;"/><text fill="#000000" font-family="sans-serif" font-size="11" lengthAdjust="spacingAndGlyphs" textLength="98" x="26" y="421.1406">boolean isPlayful()</text><ellipse cx="17" cy="431.4385" fill="#84BE84" rx="3" ry="3" style="stroke: #038048; stroke-width: 1.0;"/><text fill="#000000" font-family="sans-serif" font-size="11" lengthAdjust="spacingAndGlyphs" textLength="103" x="26" y="434.0957">boolean isHungry()</text><ellipse cx="17" cy="444.3936" fill="#84BE84" rx="3" ry="3" style="stroke: #038048; stroke-width: 1.0;"/><text fill="#000000" font-family="sans-serif" font-size="11" lengthAdjust="spacingAndGlyphs" textLength="114" x="26" y="447.0508">boolean isDigesting()</text><ellipse cx="17" cy="457.3486" fill="#84BE84" rx="3" ry="3" style="stroke: #038048; stroke-width: 1.0;"/><text fill="#000000" font-family="sans-serif" font-size="11" lengthAdjust="spacingAndGlyphs" textLength="90" x="26" y="460.0059">boolean isDead()</text><text fill="#000000" font-family="sans-serif" font-size="11" lengthAdjust="spacingAndGlyphs" textLength="0" x="29" y="472.9609"/><ellipse cx="17" cy="483.2588" fill="#84BE84" rx="3" ry="3" style="stroke: #038048; stroke-width: 1.0;"/><text fill="#000000" font-family="sans-serif" font-size="11" lengthAdjust="spacingAndGlyphs" textLength="70" x="26" y="485.916">int getSleep()</text><ellipse cx="17" cy="496.2139" fill="#84BE84" rx="3" ry="3" style="stroke: #038048; stroke-width: 1.0;"/><text fill="#000000" font-family="sans-serif" font-size="11" lengthAdjust="spacingAndGlyphs" textLength="76" x="26" y="498.8711">int getDigest()</text><ellipse cx="17" cy="509.1689" fill="#84BE84" rx="3" ry="3" style="stroke: #038048; stroke-width: 1.0;"/><text fill="#000000" font-family="sans-serif" font-size="11" lengthAdjust="spacingAndGlyphs" textLength="76" x="26" y="511.8262">int getAwake()</text><ellipse cx="17" cy="522.124" fill="#84BE84" rx="3" ry="3" style="stroke: #038048; stroke-width: 1.0;"/><text fill="#000000" font-family="sans-serif" font-size="11" lengthAdjust="spacingAndGlyphs" textLength="90" x="26" y="524.7813">String getName()</text><!--class State--><rect fill="#FEFECE" filter="url(#fad2twvg6j051)" height="138.6855" id="State" style="stroke: #A80036; stroke-width: 1.5;" width="205" x="353.5" y="8"/><ellipse cx="437.75" cy="24" fill="#A9DCDF" rx="11" ry="11" style="stroke: #A80036; stroke-width: 1.0;"/><path d="M437.8633,19.5981 L436.7095,24.6699 L439.0254,24.6699 Z M436.3691,17.3569 L439.3657,17.3569 L442.7109,29.75 L440.2622,29.75 L439.4985,26.687 L436.2197,26.687 L435.4727,29.75 L433.0239,29.75 Z "/><text fill="#000000" font-family="sans-serif" font-size="12" font-style="italic" lengthAdjust="spacingAndGlyphs" textLength="28" x="458.25" y="28.5352">State</text><line style="stroke: #A80036; stroke-width: 1.5;" x1="354.5" x2="557.5" y1="40" y2="40"/><polygon fill="none" points="364.5,46.9775,368.5,50.9775,364.5,54.9775,360.5,50.9775" style="stroke: #B38D22; stroke-width: 1.0;"/><text fill="#000000" font-family="sans-serif" font-size="11" lengthAdjust="spacingAndGlyphs" text-decoration="underline" textLength="79" x="373.5" y="54.6348">logger: Logger</text><line style="stroke: #000000; stroke-width: 1.0;" x1="373.5" x2="452.5" y1="56.6348" y2="56.6348"/><rect fill="none" height="6" style="stroke: #C82930; stroke-width: 1.0;" width="6" x="361.5" y="61.9326"/><text fill="#000000" font-family="sans-serif" font-size="11" lengthAdjust="spacingAndGlyphs" textLength="24" x="373.5" y="67.5898">t: int</text><rect fill="none" height="6" style="stroke: #C82930; stroke-width: 1.0;" width="6" x="361.5" y="74.8877"/><text fill="#000000" font-family="sans-serif" font-size="11" lengthAdjust="spacingAndGlyphs" textLength="92" x="373.5" y="80.5449">final duration: int</text><line style="stroke: #A80036; stroke-width: 1.5;" x1="354.5" x2="557.5" y1="86.8652" y2="86.8652"/><text fill="#000000" font-family="sans-serif" font-size="11" lengthAdjust="spacingAndGlyphs" textLength="96" x="373.5" y="101.5">State tick(cat: Cat)</text><text fill="#000000" font-family="sans-serif" font-size="11" lengthAdjust="spacingAndGlyphs" textLength="179" x="373.5" y="114.4551">abstract State successor(cat: Cat)</text><ellipse cx="364.5" cy="124.7529" fill="#84BE84" rx="3" ry="3" style="stroke: #038048; stroke-width: 1.0;"/><text fill="#000000" font-family="sans-serif" font-size="11" lengthAdjust="spacingAndGlyphs" textLength="71" x="373.5" y="127.4102">getTime(): int</text><ellipse cx="364.5" cy="137.708" fill="#84BE84" rx="3" ry="3" style="stroke: #038048; stroke-width: 1.0;"/><text fill="#000000" font-family="sans-serif" font-size="11" lengthAdjust="spacingAndGlyphs" textLength="92" x="373.5" y="140.3652">getDuration(): int</text><!--class DigestingState--><rect fill="#FEFECE" filter="url(#fad2twvg6j051)" height="48" id="DigestingState" style="stroke: #A80036; stroke-width: 1.5;" width="113" x="181.5" y="353.5"/><ellipse cx="196.5" cy="369.5" fill="#ADD1B2" rx="11" ry="11" style="stroke: #A80036; stroke-width: 1.0;"/><path d="M198.9731,375.6431 Q198.3921,375.9419 197.7529,376.0913 Q197.1138,376.2407 196.4082,376.2407 Q193.9014,376.2407 192.5815,374.5889 Q191.2617,372.937 191.2617,369.8159 Q191.2617,366.6865 192.5815,365.0347 Q193.9014,363.3828 196.4082,363.3828 Q197.1138,363.3828 197.7612,363.5322 Q198.4087,363.6816 198.9731,363.9805 L198.9731,366.7031 Q198.3423,366.1221 197.7488,365.8523 Q197.1553,365.5825 196.5244,365.5825 Q195.1797,365.5825 194.4949,366.6492 Q193.8101,367.7158 193.8101,369.8159 Q193.8101,371.9077 194.4949,372.9744 Q195.1797,374.041 196.5244,374.041 Q197.1553,374.041 197.7488,373.7712 Q198.3423,373.5015 198.9731,372.9204 Z "/><text fill="#000000" font-family="sans-serif" font-size="12" lengthAdjust="spacingAndGlyphs" textLength="81" x="210.5" y="374.0352">DigestingState</text><line style="stroke: #A80036; stroke-width: 1.5;" x1="182.5" x2="293.5" y1="385.5" y2="385.5"/><line style="stroke: #A80036; stroke-width: 1.5;" x1="182.5" x2="293.5" y1="393.5" y2="393.5"/><!--class HungryState--><rect fill="#FEFECE" filter="url(#fad2twvg6j051)" height="60.9551" id="HungryState" style="stroke: #A80036; stroke-width: 1.5;" width="112" x="330" y="347"/><ellipse cx="349.95" cy="363" fill="#ADD1B2" rx="11" ry="11" style="stroke: #A80036; stroke-width: 1.0;"/><path d="M352.4231,369.1431 Q351.8421,369.4419 351.2029,369.5913 Q350.5638,369.7407 349.8582,369.7407 Q347.3514,369.7407 346.0315,368.0889 Q344.7117,366.437 344.7117,363.3159 Q344.7117,360.1865 346.0315,358.5347 Q347.3514,356.8828 349.8582,356.8828 Q350.5638,356.8828 351.2112,357.0322 Q351.8587,357.1816 352.4231,357.4805 L352.4231,360.2031 Q351.7923,359.6221 351.1988,359.3523 Q350.6053,359.0825 349.9744,359.0825 Q348.6297,359.0825 347.9449,360.1492 Q347.2601,361.2158 347.2601,363.3159 Q347.2601,365.4077 347.9449,366.4744 Q348.6297,367.541 349.9744,367.541 Q350.6053,367.541 351.1988,367.2712 Q351.7923,367.0015 352.4231,366.4204 Z "/><text fill="#000000" font-family="sans-serif" font-size="12" lengthAdjust="spacingAndGlyphs" textLength="69" x="365.05" y="367.5352">HungryState</text><line style="stroke: #A80036; stroke-width: 1.5;" x1="331" x2="441" y1="379" y2="379"/><line style="stroke: #A80036; stroke-width: 1.5;" x1="331" x2="441" y1="387" y2="387"/><text fill="#000000" font-family="sans-serif" font-size="11" lengthAdjust="spacingAndGlyphs" textLength="100" x="336" y="401.6348">State feed(cat: Cat)</text><!--class PlayfulState--><rect fill="#FEFECE" filter="url(#fad2twvg6j051)" height="48" id="PlayfulState" style="stroke: #A80036; stroke-width: 1.5;" width="97" x="477.5" y="353.5"/><ellipse cx="492.5" cy="369.5" fill="#ADD1B2" rx="11" ry="11" style="stroke: #A80036; stroke-width: 1.0;"/><path d="M494.9731,375.6431 Q494.3921,375.9419 493.7529,376.0913 Q493.1138,376.2407 492.4082,376.2407 Q489.9014,376.2407 488.5815,374.5889 Q487.2617,372.937 487.2617,369.8159 Q487.2617,366.6865 488.5815,365.0347 Q489.9014,363.3828 492.4082,363.3828 Q493.1138,363.3828 493.7612,363.5322 Q494.4087,363.6816 494.9731,363.9805 L494.9731,366.7031 Q494.3423,366.1221 493.7488,365.8523 Q493.1553,365.5825 492.5244,365.5825 Q491.1797,365.5825 490.4949,366.6492 Q489.8101,367.7158 489.8101,369.8159 Q489.8101,371.9077 490.4949,372.9744 Q491.1797,374.041 492.5244,374.041 Q493.1553,374.041 493.7488,373.7712 Q494.3423,373.5015 494.9731,372.9204 Z "/><text fill="#000000" font-family="sans-serif" font-size="12" lengthAdjust="spacingAndGlyphs" textLength="65" x="506.5" y="374.0352">PlayfulState</text><line style="stroke: #A80036; stroke-width: 1.5;" x1="478.5" x2="573.5" y1="385.5" y2="385.5"/><line style="stroke: #A80036; stroke-width: 1.5;" x1="478.5" x2="573.5" y1="393.5" y2="393.5"/><!--class ohm.softa.a03.SleepingState--><rect fill="#FEFECE" filter="url(#fad2twvg6j051)" height="48" id="ohm.softa.a03.SleepingState" style="stroke: #A80036; stroke-width: 1.5;" width="108" x="610" y="353.5"/><ellipse cx="625" cy="369.5" fill="#ADD1B2" rx="11" ry="11" style="stroke: #A80036; stroke-width: 1.0;"/><path d="M627.4731,375.6431 Q626.8921,375.9419 626.2529,376.0913 Q625.6138,376.2407 624.9082,376.2407 Q622.4014,376.2407 621.0815,374.5889 Q619.7617,372.937 619.7617,369.8159 Q619.7617,366.6865 621.0815,365.0347 Q622.4014,363.3828 624.9082,363.3828 Q625.6138,363.3828 626.2612,363.5322 Q626.9087,363.6816 627.4731,363.9805 L627.4731,366.7031 Q626.8423,366.1221 626.2488,365.8523 Q625.6553,365.5825 625.0244,365.5825 Q623.6797,365.5825 622.9949,366.6492 Q622.3101,367.7158 622.3101,369.8159 Q622.3101,371.9077 622.9949,372.9744 Q623.6797,374.041 625.0244,374.041 Q625.6553,374.041 626.2488,373.7712 Q626.8423,373.5015 627.4731,372.9204 Z "/><text fill="#000000" font-family="sans-serif" font-size="12" lengthAdjust="spacingAndGlyphs" textLength="76" x="639" y="374.0352">ohm.softa.a03.SleepingState</text><line style="stroke: #A80036; stroke-width: 1.5;" x1="611" x2="717" y1="385.5" y2="385.5"/><line style="stroke: #A80036; stroke-width: 1.5;" x1="611" x2="717" y1="393.5" y2="393.5"/><!--class DeathState--><rect fill="#FEFECE" filter="url(#fad2twvg6j051)" height="48" id="DeathState" style="stroke: #A80036; stroke-width: 1.5;" width="94" x="753" y="353.5"/><ellipse cx="768" cy="369.5" fill="#ADD1B2" rx="11" ry="11" style="stroke: #A80036; stroke-width: 1.0;"/><path d="M770.4731,375.6431 Q769.8921,375.9419 769.2529,376.0913 Q768.6138,376.2407 767.9082,376.2407 Q765.4014,376.2407 764.0815,374.5889 Q762.7617,372.937 762.7617,369.8159 Q762.7617,366.6865 764.0815,365.0347 Q765.4014,363.3828 767.9082,363.3828 Q768.6138,363.3828 769.2612,363.5322 Q769.9087,363.6816 770.4731,363.9805 L770.4731,366.7031 Q769.8423,366.1221 769.2488,365.8523 Q768.6553,365.5825 768.0244,365.5825 Q766.6797,365.5825 765.9949,366.6492 Q765.3101,367.7158 765.3101,369.8159 Q765.3101,371.9077 765.9949,372.9744 Q766.6797,374.041 768.0244,374.041 Q768.6553,374.041 769.2488,373.7712 Q769.8423,373.5015 770.4731,372.9204 Z "/><text fill="#000000" font-family="sans-serif" font-size="12" lengthAdjust="spacingAndGlyphs" textLength="62" x="782" y="374.0352">DeathState</text><line style="stroke: #A80036; stroke-width: 1.5;" x1="754" x2="846" y1="385.5" y2="385.5"/><line style="stroke: #A80036; stroke-width: 1.5;" x1="754" x2="846" y1="393.5" y2="393.5"/><!--link State to DigestingState--><path d="M364.2454,161.5368 C345.6757,181.0034 327.2059,202.3822 312,224 C282.384,266.1042 258.8411,321.8862 246.7975,353.3016 " fill="none" id="State-DigestingState" style="stroke: #A80036; stroke-width: 1.0;"/><polygon fill="none" points="359.4242,156.455,378.4128,147.051,369.4331,166.2439,359.4242,156.455" style="stroke: #A80036; stroke-width: 1.0;"/><!--link State to HungryState--><path d="M435.201,166.6386 C420.9853,227.5631 403.0057,304.6183 393.1949,346.6648 " fill="none" id="State-HungryState" style="stroke: #A80036; stroke-width: 1.0;"/><polygon fill="none" points="428.4031,164.9663,439.7646,147.0801,442.0369,168.1475,428.4031,164.9663" style="stroke: #A80036; stroke-width: 1.0;"/><!--link State to PlayfulState--><path d="M476.8382,166.8064 C491.8288,231.0522 510.9887,313.1658 520.3457,353.2672 " fill="none" id="State-PlayfulState" style="stroke: #A80036; stroke-width: 1.0;"/><polygon fill="none" points="469.9631,168.1475,472.2354,147.0801,483.5969,164.9663,469.9631,168.1475" style="stroke: #A80036; stroke-width: 1.0;"/><!--link State to ohm.softa.a03.SleepingState--><path d="M542.602,161.9587 C560.1499,181.4047 577.6116,202.6685 592,224 C620.6406,266.461 643.6101,322.1147 655.3864,353.4114 " fill="none" id="State-ohm.softa.a03.SleepingState" style="stroke: #A80036; stroke-width: 1.0;"/><polygon fill="none" points="537.3301,166.568,528.8931,147.1304,547.61,157.0641,537.3301,166.568" style="stroke: #A80036; stroke-width: 1.0;"/><!--link State to DeathState--><path d="M577.3509,119.4956 C631.3504,143.2055 692.249,177.5467 735,224 C769.6877,261.6917 787.4816,320.6424 795.1604,353.4366 " fill="none" id="State-DeathState" style="stroke: #A80036; stroke-width: 1.0;"/><polygon fill="none" points="574.2689,125.7924,558.5795,111.5501,579.7261,112.8998,574.2689,125.7924" style="stroke: #A80036; stroke-width: 1.0;"/><!--link State to Cat--><path d="M353.4085,110.328 C292.345,134.051 216.7404,171.2643 164,224 C160.7519,227.2478 157.583,230.6399 154.4952,234.1484 " fill="none" id="State-Cat" style="stroke: #A80036; stroke-width: 1.0;"/><polygon fill="#A80036" points="146.0091,244.3208,152.9242,242.2759,153.6962,235.1062,146.7811,237.1511,146.0091,244.3208" style="stroke: #A80036; stroke-width: 1.0;"/><text fill="#000000" font-family="sans-serif" font-size="13" lengthAdjust="spacingAndGlyphs" textLength="80" x="220" y="190.5684">current state</text><!--
@startuml

class Cat {
	-sleep: int
    -awake: int
    -digest: int

    -currentState: State

    -name: String
    
    +void feed()
    +void tick()

    +boolean isAsleep()
    +boolean isPlayful()
    +boolean isHungry()
    +boolean isDigesting()
    +boolean isDead()

    +int getSleep()
    +int getDigest()
    +int getAwake()
    +String getName()
}

abstract class State {
	#{static}logger: Logger
    -t: int
    -final duration: int
    State tick(cat: Cat)
    abstract State successor(cat: Cat)
    +getTime(): int
    +getDuration(): int
}

class DigestingState extends State {
}

class HungryState extends State {
    State feed(cat: Cat)
}

class PlayfulState extends State {
}

class SleepingState extends State {
}

class DeathState extends State {
}

State - -* Cat : current state

@enduml

PlantUML version 1.2019.03(Sun Mar 10 12:04:44 CET 2019)
(GPL source distribution)
Java Runtime: OpenJDK Runtime Environment
JVM: OpenJDK 64-Bit Server VM
Java Version: 11.0.2+9
Operating System: Mac OS X
OS Version: 10.14.4
Default Encoding: UTF-8
Language: en
Country: GB
--></g></svg>
